<svg width="89" height="32" viewBox="0 0 89 32" fill="none" xmlns="http://www.w3.org/2000/svg">
<path d="M11.5 2.59786C14.2846 0.990165 17.7154 0.990165 20.5 2.59786L25.3564 5.4017C28.141 7.0094 29.8564 9.98054 29.8564 13.196V18.8036C29.8564 22.019 28.141 24.9902 25.3564 26.5979L20.5 29.4017C17.7154 31.0094 14.2846 31.0094 11.5 29.4017L6.64359 26.5979C3.85898 24.9902 2.14359 22.019 2.14359 18.8036V13.196C2.14359 9.98054 3.85898 7.0094 6.64359 5.4017L11.5 2.59786Z" fill="#8CCAAE"/>
<path d="M17.4268 21.2787C18.3076 21.1519 19.1402 20.8071 19.8503 20.2787C20.0501 20.1301 20.0665 19.8434 19.9015 19.6569C19.7365 19.4704 19.4528 19.4551 19.2505 19.6003C18.6741 20.0139 18.0049 20.2845 17.2983 20.3862C16.4425 20.5095 15.5693 20.3796 14.7863 20.0128C14.0034 19.6459 13.3448 19.058 12.8919 18.3215C12.4389 17.585 12.2112 16.7321 12.237 15.8679C12.2627 15.0036 12.5407 14.1657 13.0367 13.4575C13.5328 12.7493 14.2251 12.2016 15.0285 11.882C15.8319 11.5624 16.7113 11.4848 17.5582 11.6588C18.2575 11.8024 18.9095 12.1123 19.4602 12.5595C19.6535 12.7165 19.9377 12.7181 20.1135 12.5417C20.2892 12.3654 20.2899 12.0782 20.0993 11.918C19.4219 11.3483 18.6113 10.9545 17.7397 10.7755C16.7204 10.5662 15.6621 10.6596 14.6952 11.0442C13.7284 11.4289 12.8951 12.0879 12.2982 12.9403C11.7013 13.7926 11.3667 14.8009 11.3357 15.841C11.3047 16.8811 11.5787 17.9076 12.1238 18.7939C12.669 19.6802 13.4615 20.3877 14.4038 20.8293C15.346 21.2708 16.3968 21.427 17.4268 21.2787Z" stroke="white" stroke-width="2"/>
<path d="M45.568 24.264C44.3653 24.264 43.2727 23.978 42.29 23.406C41.3073 22.834 40.5227 21.998 39.936 20.898C39.364 19.7833 39.078 18.434 39.078 16.85C39.078 15.2807 39.3713 13.9387 39.958 12.824C40.5593 11.6947 41.3587 10.8367 42.356 10.25C43.3533 9.64867 44.4533 9.348 45.656 9.348C46.5653 9.348 47.372 9.53133 48.076 9.898C48.78 10.2647 49.3593 10.69 49.814 11.174L48.45 12.824C48.0833 12.4427 47.6727 12.142 47.218 11.922C46.778 11.6873 46.2793 11.57 45.722 11.57C44.9447 11.57 44.248 11.7827 43.632 12.208C43.0307 12.6187 42.554 13.2127 42.202 13.99C41.8647 14.7673 41.696 15.6987 41.696 16.784C41.696 18.4267 42.0553 19.7173 42.774 20.656C43.4927 21.58 44.4533 22.042 45.656 22.042C46.3013 22.042 46.8733 21.91 47.372 21.646C47.8707 21.3673 48.3253 21.008 48.736 20.568L50.1 22.174C49.5133 22.8487 48.8387 23.3693 48.076 23.736C47.328 24.088 46.492 24.264 45.568 24.264ZM53.1618 24V9.612H58.0238C59.0211 9.612 59.9158 9.744 60.7078 10.008C61.5144 10.272 62.1451 10.7193 62.5998 11.35C63.0691 11.966 63.3038 12.8093 63.3038 13.88C63.3038 14.98 63.0398 15.8673 62.5118 16.542C61.9984 17.2167 61.3091 17.7007 60.4438 17.994L63.8758 24H61.0158L57.9138 18.368H55.7138V24H53.1618ZM55.7138 16.344H57.7598C58.7424 16.344 59.4904 16.1387 60.0038 15.728C60.5318 15.3027 60.7958 14.6867 60.7958 13.88C60.7958 13.0587 60.5318 12.4867 60.0038 12.164C59.4904 11.8267 58.7424 11.658 57.7598 11.658H55.7138V16.344ZM66.8413 24V9.612H69.7233L72.2753 16.652C72.4366 17.1067 72.5906 17.576 72.7373 18.06C72.8986 18.5293 73.0526 18.9987 73.1993 19.468H73.2873C73.4486 18.9987 73.6026 18.5293 73.7493 18.06C73.896 17.576 74.0426 17.1067 74.1893 16.652L76.6753 9.612H79.5793V24H77.2253V17.422C77.2253 16.9673 77.24 16.476 77.2693 15.948C77.3133 15.4053 77.3573 14.8627 77.4013 14.32C77.46 13.7773 77.5113 13.286 77.5553 12.846H77.4673L76.3013 16.19L73.9473 22.658H72.4293L70.0533 16.19L68.9093 12.846H68.8213C68.8653 13.286 68.9093 13.7773 68.9533 14.32C69.012 14.8627 69.056 15.4053 69.0853 15.948C69.1293 16.476 69.1513 16.9673 69.1513 17.422V24H66.8413Z" fill="black"/>
</svg>
